<svg width="16" height="17" viewBox="0 0 16 17" fill="none" xmlns="http://www.w3.org/2000/svg">
<g id="GUC153">
<path id="Vector" d="M2.00002 15.8333C1.63335 15.8333 1.31946 15.7027 1.05835 15.4416C0.797243 15.1805 0.666687 14.8666 0.666687 14.5V2.49996C0.666687 2.13329 0.797243 1.8194 1.05835 1.55829C1.31946 1.29718 1.63335 1.16663 2.00002 1.16663H14C14.3667 1.16663 14.6806 1.29718 14.9417 1.55829C15.2028 1.8194 15.3334 2.13329 15.3334 2.49996V14.5C15.3334 14.8666 15.2028 15.1805 14.9417 15.4416C14.6806 15.7027 14.3667 15.8333 14 15.8333H2.00002ZM4.66669 15.1666L5.60002 14.2L4.56669 13.1666H12.6667V9.16663H11.3334V11.8333H4.56669L5.60002 10.8L4.66669 9.83329L2.00002 12.5L4.66669 15.1666ZM3.33335 7.83329H4.66669V5.16663H11.4334L10.4 6.19996L11.3334 7.16663L14 4.49996L11.3334 1.83329L10.4 2.79996L11.4334 3.83329H3.33335V7.83329Z" fill="#767676"/>
</g>
</svg>
