<svg width="16" height="17" viewBox="0 0 16 17" fill="none" xmlns="http://www.w3.org/2000/svg">
<g id="GUC153">
<rect y="0.5" width="16" height="16" rx="2" fill="white"/>
<path id="Vector" d="M2.91691 14.5L1.98358 13.5667L8.81692 6.73333C8.61692 6.26667 8.58914 5.73889 8.73358 5.15C8.87803 4.56111 9.19469 4.03333 9.68358 3.56667C10.2725 2.97778 10.928 2.63333 11.6502 2.53333C12.3725 2.43333 12.9614 2.61111 13.4169 3.06667C13.8725 3.52222 14.0502 4.11111 13.9502 4.83333C13.8502 5.55556 13.5058 6.21111 12.9169 6.8C12.4502 7.28889 11.9225 7.60556 11.3336 7.75C10.7447 7.89444 10.2169 7.86667 9.75025 7.66667L8.91692 8.5L13.9836 13.5667L13.0502 14.5L7.98358 9.46667L2.91691 14.5ZM4.88358 8.8L2.88358 6.8C2.28358 6.2 1.98358 5.48333 1.98358 4.65C1.98358 3.81667 2.28358 3.1 2.88358 2.5L7.01692 6.66667L4.88358 8.8Z" fill="#5F69C7"/>
</g>
</svg>
